<svg xmlns="http://www.w3.org/2000/svg" xml:space="preserve" viewBox="0 0 512 512"><path d="M509.92 165.71c-1.12 2.36-2.36 4.62-3.36 7.14-10.14 25.45-19.77 51.53-30.48 76.28-14.88 34.39-33.4 63.2-52.8 90.16-17.42 24.21-36.93 41.07-60.29 42.93-13.62 1.08-26.05-3.93-36.75-17.67-18.2-23.36-24.12-56.53-24.59-93.35-.03-2.66 1.18-5.35 2.18-9.57 1.3 3.37 1.9 5.04 2.56 6.62 4.37 10.37 8.32 21.35 13.23 30.95 8.74 17.07 25.73 22.83 38.2 15.02 11.3-7.08 20.1-19.35 26.87-35.56 16.2-38.84 23.07-83.22 25.32-129.7 1-20.87.08-42 .2-63.01.01-3.42.44-7.2 1.4-10.15 3.66-11.16 7.55-22.1 11.46-33.02 2.9-8.09 5.96-16.02 8.95-24.02l-.48-.58-22.92 47.64c-2.33-9.95-4.05-19.14-6.58-27.64-7.4-24.82-20.68-30.1-34.27-22.43-10.25 5.8-18.96 16.06-26.82 28.4-16.38 25.68-28.17 56.94-38.53 89.92-.88 2.8-1.9 5.46-3.46 9.9-1.14-4.42-1.86-6.93-2.44-9.52-2.3-10.24-4.33-20.66-6.88-30.72-6.87-27.16-13.88-54.13-25.23-77.27-14.39-29.31-37-34.87-55.74-13.67-14.8 16.73-25.42 39.5-33.59 65.37-10.56 33.48-18.58 68.73-22.13 106.48-.28 2.9-1.19 5.61-1.99 9.25-1.05-1.9-1.43-2.3-1.56-2.87-5.42-24.02-13.39-45.67-22.06-66.62-6.42-15.52-13.82-29.44-23.48-39.67-10.04-10.62-20.8-15-32.32-9.84-7.86 3.52-15.14 9.8-21.4 18.8-1.67 2.39-2.94 2.22-4.49-.18-2.2-3.4-4.53-6.54-6.8-9.79l-.55.71 6.03 17.44-.88 1.73c-5.99-4.9-10.95-12.82-16.92-18.04 3.24 7.66 5.16 17.02 10.65 21.65.72.61.91 3.01 1.35 4.58-2.67.73-2.36 5.32-3.6 7.92-8.81 18.54-15.1 39.48-20.05 61.53C6.66 217.9 2.3 255.84.78 295.01c-2.68 68.6 1.46 135.72 13.5 201.42a89 89 0 0 0 3.63 13.33c.48 1.39 2.3 2.6 3.2 2.14.99-.5 1.97-2.85 2.29-4.71.29-1.73-.2-3.94-.5-5.85-2.09-12.46-4.77-24.72-6.21-37.38-3.78-32.99-5.56-66.36-6.12-99.98C9.6 306.1 12.13 249.1 23.9 194.09A342 342 0 0 1 41.4 137c1.63-4.05 3.3-5.44 6.29-3.02 7.65 6.23 15.5 11.8 23.25 17.7 1.65 1.26 3.23 2.75 4.85 4.13l-.3.92-25.78-16.84c6.67 13.64 16.32 16.08 24.79 22.77l-14.4-6.26c8.27 13.1 18.64 14.48 28.38 20.75l-3.47 3.82 10.85 7.95-4.1 4.8c3.54 2.47 6.61 4.63 9.98 7l-2.79 3.58 11.67 9.44-3.57 5.23 11.8 7.36-1.74 4.58c2.65 1.64 4.95 2.8 7.11 4.47 2 1.53 5.63.9 3.94 8.1 2.32 1.15 4.17 1.76 5.85 3a47 47 0 0 1 5.93 5.5c1.52 1.62 2.76 4.7 4.36 5.24 2.7.93 3.42 2.65 3.2 7.2a798 798 0 0 0-.87 30.18c-.47 35.14-.28 70.3 3.28 105.02 1.3 12.6 4.09 24.86 6.78 36.9 1.39 6.19 4.8 8.36 8.94 6.95 7.1-2.42 9.6-11.47 10.77-21.66 3.31-28.76 1.58-57.5-1.07-86.05-1.51-16.31-3.7-32.44-5.63-48.64-.44-3.66.56-4.42 2.5-5.03 4.29-1.32 7.2 1.75 9.4 7.35 2.3 5.88 5.22 7.2 9.2 5.2 1.49-.73 3.77-.07 5.01 1.48 2.2 2.74 3.9 6.65 6.11 10.64-4.62 8.55-9.28-.97-13.4.95.92 10.47 6.88 9.36 11.04 13.03l-20.27 2.76-.13 2.86c1.3.4 2.63 1.29 3.91 1.13 7.97-.94 15.91-2.44 23.88-3.08 4.19-.33 8.42.55 12.61 1.25.93.15 1.77 1.81 2.66 2.78-.91.99-1.75 2.47-2.74 2.87-4.35 1.76-8.75 3.21-13.1 4.76l-.73 14.1c4.71-2.36 8.92-4.33 13.07-6.56 5.24-2.82 6.2-3.25 6.07 8.1-.01.67-.27 1.36-.21 1.98.72 7.18-2.98 16.17 3.05 21.36.34.3-.02 3.18-.2 4.81-.65 5.94-4.98 11.1-1.34 18.01.17.32-.3 1.6-.5 2.41-1.9 8-.4 11.7 4.86 11.34 2.68-.19 4.15 1.1 4.91 5.72 1.86 11.36 3.2 23.14 7.78 32.68 1.53 3.19 2.85 8.13 4.77 8.96 3.08 1.34 4.07 4.77 5.41 8.4.38 1.01.89 1.89 1.34 2.83l.67-.62-4.53-15.08c3.65-.67 3.42-4.25 3.19-8.3-.5-8.9-1.58-18-.93-26.7 1.14-15.26 3.34-30.3 5.28-45.37.2-1.48 1.63-3.44 2.57-3.56 3.45-.42 6.93-.17 11.01-.17l6.02 22.27 3.51-.32c2.41 17.05 8.81 29.54 15.7 42.29l5.1-5.55 13.53 17.34.72-.77-4.8-12.45 8.29-8.81-.56-2.48c-3.87 1.06-8 1.07-11.53 3.49-3.65 2.5-5.04.2-6.5-4.35 3.24-3.22 1.2-22.15-1.62-26.2l-3.36-26.7c.16 0 .34-.1.4 0q.57.92 1.07 1.92c11.73 23.82 26.27 39.65 44.76 43.86 22 5.02 42.81-2.73 62.11-19.86 27.48-24.4 48.49-60.67 64.45-105.33 3.43-9.58 6.72-19.31 10.29-28.74 6.78-17.92 13.85-35.55 20.57-53.55 3.88-10.42 7.32-21.3 10.94-32 1.03-3.02 1.94-6.09-1.1-8.77m-117.16-28.34c-.42 31.93-2.85 63.32-9.92 93.2-4 16.87-8.83 33.02-16.77 45.95-10.4 16.95-23.17 16.79-32.43-1.8-4.99-10-8.8-21.67-13.08-32.65-1.81-4.63-.92-8.23 1.15-12.42 15.27-30.98 33.27-57.15 51.39-83.13 5.26-7.55 10.45-15.23 15.7-22.8.96-1.4 2.02-2.59 3.97-5.05 0 7.37.07 13.04 0 18.7m-82.8 45.2c9.3-39.93 21.28-77.2 38.28-109.27 5.48-10.34 12.43-18.78 19.31-26.6 6.54-7.43 12.42-4.35 16.69 6.95 5.07 13.42 6.45 28.73 7.45 44.1.34 5.21-3.84 13.5-6.87 14.86-.69.32-1.47.53-2 1.23-8.96 11.82-17.32 25.31-27 35.11-8.43 8.54-13.42 22.44-21.14 31.74-7.31 8.8-14.27 18.45-21.85 28.33-3.3-9.32-5.19-16.5-2.87-26.45m-235.67-33.7L48.58 124.5l.38-2.13c.96.2 2.12-.14 2.86.65 7.71 8.14 15.36 16.47 23.02 24.75zm52.73 27.67c-11.95-9.71-23.98-19.13-35.72-29.5-3.39-2.98-6.03-8.54-8.79-13.3-5.46-9.41-10.76-19.1-16.33-29.04.17 17.59 9.23 25 13.38 38-7.25-10.51-14.49-21.04-22.28-32.36 4.12-6.15 8.51-9.86 13.35-12.08 11.58-5.31 21.91-.75 30.86 12.26 12.63 18.35 22.37 40.53 29.94 65.47.17.57.18 1.27.5 3.65-2.07-1.3-3.55-2-4.91-3.1M240.4 279.72c-.83.67-1.96 1.28-2.32 2.46-2.32 7.47-5.03 3.03-8.36 2.34-7.15-1.5-11.55-9.8-17-15.47-3.26-3.4-6.21-7.67-9.27-11.61-11.52-14.82-22.97-29.76-34.56-44.4-2.32-2.93-3.09-5.84-2.69-10.7 4.3-52.92 15.51-101.2 34.93-143.5 4.78-10.4 11.36-18.69 17.64-26.78 2.76-3.56 6.86-4.19 8.95-5.36 8.6.8 13.95 7.06 18.42 15.22 8.29 15.1 14.52 32.67 19.12 51.55a4133 4133 0 0 1 21.97 95.62c1.07 4.9.07 11.39-.56 16.96-1.29 11.4-3.06 22.64-4.45 34-.6 4.88-1.67 8.28-5 6.64-2.88-1.43-4.24.82-5.06 4.9-1.12 5.6-3.84 7.25-6.6 10.3-4.64 5.13-10.23 3.56-14.58 9.18-3.04 3.94-7.03 5.8-10.58 8.65m10.03 35.63c2.07-6.64 4.43-5.72 8.18 4.12zm14.3 11.1-7.5.7-.01-3.55 7.53 1.39zm32.76-5.13a123 123 0 0 1-2.87 13.46c-.23.9-1.93 1.73-1.95 1.65-3.22-9.51-10.29-9.13-14.47-16.03-1.49-2.44-2.74-5.29-4.28-7.62-2.9-4.42-5.94-8.6-8.92-12.88l5.22 10.1-.86 1.88-10.65-7.56-.28.77 11.97 16.79-.43.99-23.38-23.32 4.9-2.42-1.83-6.5c3.58-1.39 6.72-2.73 9.43 2.17l-8.08-15.2c6.15-1.4 6.15-1.4 6.71-8.45l2.54 1.22 7.6-4.76 2.2 2.72.49-1.85c5.26 1.64 9.79 4.9 14.02 12.07 5.65 9.58 9.2 21.15 12.96 32.57.86 2.63.42 6.92-.04 10.2"/></svg>
